Ostrich_Walking_Kinematics																														
version=1																														
nRows=44																														
nColumns=31																														
inDegrees=yes																														
endheader																														
time	pelvis_tilt	pelvis_list	pelvis_rotation	pelvis_tx	pelvis_ty	pelvis_tz	R_hip_extension	R_hip_abduction	R_hip_rotation	R_knee_angle	R_knee_varus	R_knee_rotation	R_ankle_angle	R_ankle_abduction	R_ankle_rotation	R_mtp_angle	R_mtp_abduction	R_mtp_rotation	L_hip_extension	L_hip_abduction	L_hip_rotation	L_knee_angle	L_knee_varus	L_knee_rotation	L_ankle_angle	L_ankle_abduction	L_ankle_rotation	L_mtp_angle	L_mtp_abduction	L_mtp_rotation
-0.035	7.893633333	-27.84066667	3.89468	0.687153333	1.159933333	-0.964743333	27.03933333	12.99070333	-48.91433333	-76.27233333	-19.41066667	-6.605933333	13.429	6.066233333	3.5333	-35.55066667	30.6	8.593766667	43.34266667	-13.323	-45.221	-66.00633333	-10.8154	-5.377033333	17.72066667	11.19966667	8.512833333	-36.10166667	6.927933333	24.97566667
-0.03	7.808633333	-25.50316667	3.51112	0.693808333	1.160183333	-0.965003333	27.63533333	11.11626833	-47.28483333	-77.43733333	-19.49966667	-6.787733333	14.9825	6.344983333	2.73945	-39.58916667	29.6155	7.960166667	44.04416667	-14.2115	-43.4265	-66.69283333	-10.66805	-5.088733333	17.85316667	11.08966667	8.248833333	-35.93616667	7.048283333	24.80516667
-0.025	7.723633333	-23.16566667	3.12756	0.700463333	1.160433333	-0.965263333	28.23133333	9.241833333	-45.65533333	-78.60233333	-19.58866667	-6.969533333	16.536	6.623733333	1.9456	-43.62766667	28.631	7.326566667	44.74566667	-15.1	-41.632	-67.37933333	-10.5207	-4.800433333	17.98566667	10.97966667	7.984833333	-35.77066667	7.168633333	24.63466667
-0.02	7.638633333	-20.82816667	2.744	0.707118333	1.160683333	-0.965523333	28.82733333	7.367398333	-44.02583333	-79.76733333	-19.67766667	-7.151333333	18.0895	6.902483333	1.15175	-47.66616667	27.6465	6.692966667	45.44716667	-15.9885	-39.8375	-68.06583333	-10.37335	-4.512133333	18.11816667	10.86966667	7.720833333	-35.60516667	7.288983333	24.46416667
-0.015	7.553633333	-18.49066667	2.36044	0.713773333	1.160933333	-0.965783333	29.42333333	5.492963333	-42.39633333	-80.93233333	-19.76666667	-7.333133333	19.643	7.181233333	0.3579	-51.70466667	26.662	6.059366667	46.14866667	-16.877	-38.043	-68.75233333	-10.226	-4.223833333	18.25066667	10.75966667	7.456833333	-35.43966667	7.409333333	24.29366667
-0.01	7.468633333	-16.15316667	1.97688	0.720428333	1.161183333	-0.966043333	30.01933333	3.618528333	-40.76683333	-82.09733333	-19.85566667	-7.514933333	21.1965	7.459983333	-0.43595	-55.74316667	25.6775	5.425766667	46.85016667	-17.7655	-36.2485	-69.43883333	-10.07865	-3.935533333	18.38316667	10.64966667	7.192833333	-35.27416667	7.529683333	24.12316667
-0.005	7.383633333	-13.81566667	1.59332	0.727083333	1.161433333	-0.966303333	30.61533333	1.744093333	-39.13733333	-83.26233333	-19.94466667	-7.696733333	22.75	7.738733333	-1.2298	-59.78166667	24.693	4.792166667	47.55166667	-18.654	-34.454	-70.12533333	-9.9313	-3.647233333	18.51566667	10.53966667	6.928833333	-35.10866667	7.650033333	23.95266667
0	7.2573	-11.947	1.2551	0.73329	1.1621	-0.96665	31.071	0.34927	-37.689	-84.18	-19.858	-7.9619	24.147	7.9787	-1.9044	-63.472	23.575	4.2289	48.577	-20.007	-31.932	-70.931	-9.7586	-3.3772	18.565	10.506	6.6622	-34.705	7.7395	23.652
0.005	7.2963	-8.203	0.73552	0.74129	1.1611	-0.96665	32.088	-2.964	-35.516	-86.087	-20.474	-7.8936	26.17	8.3738	-3.056	-68.555	22.991	3.3843	48.307	-19.502	-32.32	-71.26	-9.6873	-3.0341	18.947	10.167	6.4061	-35.254	7.9525	23.872
0.01	7.0873	-7.272	0.48798	0.7466	1.1626	-0.96717	32.263	-3.3996	-34.43	-86.51	-20.036	-8.3255	27.254	8.5362	-3.4921	-71.549	21.606	2.9617	49.98	-21.784	-28.343	-72.304	-9.4639	-2.8006	18.83	10.286	6.1342	-34.374	7.9802	23.311
0.015	6.8904	-10.159	1.2376	0.75444	1.1624	-0.96815	32.371	-1.1859	-37.337	-87.495	-21.091	-9.0157	29.634	9.0457	-3.4361	-77.088	20.42	2.0882	47.678	-18.692	-32.848	-71.523	-9.9089	-3.6139	18.779	10.484	6.6749	-34.711	8.1175	23.585
0.02	6.6504	-7.803	0.48691	0.76087	1.1634	-0.96591	32.255	-2.4506	-35.09	-87.417	-20.817	-9.4064	31.017	9.8032	-3.4753	-80.948	18.32	1.4581	47.621	-19.493	-32.682	-72.294	-9.9308	-2.6814	19.121	10.225	5.7851	-35.09	7.9011	24.542
0.025	6.8599	-9.764	0.78486	0.76887	1.1634	-0.96591	31.941	-1.0793	-36.758	-88.316	-21.274	-9.7101	32.998	9.9743	-3.8638	-84.949	17.488	0.81109	49.281	-21.175	-29.311	-73.245	-10.254	-2.3183	19.324	10.624	5.361	-35.072	7.9546	23.663
0.03	6.6951	-11.184	1.2283	0.77507	1.1642	-0.96617	31.676	0.13456	-37.881	-88.484	-21.325	-10.009	34.766	10.454	-4.5681	-89.042	15.272	0.1543	47.552	-19.785	-31.713	-72.616	-9.8704	-2.9746	18.935	10.404	5.9455	-34.718	8.0627	24.131
0.035	6.8633	-5.455	0.45758	0.78107	1.1658	-0.96741	32.803	-4.7739	-34.468	-90.363	-21.956	-10.693	36.605	11.439	-5.2538	-93.416	12.721	-0.55087	48.407	-20.314	-30.097	-73.51	-10.198	-2.6641	19.495	10.673	5.7634	-34.94	7.9551	23.766
0.04	6.658	-9.716	0.76896	0.78907	1.1652	-0.96517	32.048	-0.81577	-37.057	-90.222	-21.961	-11.097	38.725	11.632	-5.7594	-97.306	11.576	-1.1619	48.614	-20.744	-29.668	-73.98	-9.8402	-2.6618	19.203	10.604	5.598	-34.971	8.2033	23.776
0.045	6.6719	-7.827	0.71396	0.79633	1.167	-0.96492	32.35	-2.6687	-36.25	-91.222	-22.175	-11.337	40.634	12.306	-6.1839	-101.08	8.3264	-1.8149	49.032	-21.307	-28.27	-74.337	-9.9259	-2.6656	19.561	10.673	5.2827	-35.795	7.9836	24.567
0.05	6.8633	-5.379	0.45758	0.80131	1.1685	-0.96666	33.183	-5.0815	-34.936	-92.946	-22.774	-11.379	42.812	12.791	-7.2274	-105.31	6.637	-2.4125	48.001	-20.203	-30.574	-74.329	-10.401	-2.2198	19.733	10.702	5.4195	-35.855	8.0059	24.26
0.055	6.8634	-10.165	0.77689	0.80856	1.1698	-0.96419	31.946	-0.49001	-38.248	-92.405	-23.237	-12.309	44.743	13.281	-7.3632	-108.42	5.6801	-2.8618	47.307	-19.278	-31.911	-74.575	-10.274	-2.224	19.972	10.65	5.2426	-36.078	8.033	24.532
0.06	7.0772	-6.757	0.46746	0.81556	1.1708	-0.96419	32.422	-3.5947	-36.148	-93.581	-23.268	-12.78	46.875	14.043	-8.0264	-112.46	2.9955	-3.5283	48.858	-21.14	-28.295	-75.072	-10.269	-2.4216	19.444	10.794	5.5737	-35.503	8.1643	23.832
0.065	7.0618	-6.882	0.45758	0.82333	1.171	-0.96392	32.645	-3.5321	-36.489	-94.743	-23.872	-12.933	49.156	14.718	-9.5489	-114.93	0.86323	-3.742	47.62	-20.421	-30.8	-74.92	-10.718	-1.6932	19.958	11.14	4.6714	-36.506	7.7437	24.473
0.07	7.0548	-7.904	0.76421	0.82831	1.1725	-0.96566	32.583	-2.8762	-37.275	-95.151	-23.747	-13.738	50.546	15.278	-9.2976	-116.88	-0.37368	-4.0871	48.031	-20.908	-28.91	-75.33	-10.16	-2.5354	20.225	11.201	5.2817	-37.187	7.8107	24.618
0.075	7.2664	-6.617	0.46581	0.83707	1.1722	-0.96317	32.619	-3.6787	-36.634	-95.685	-24.097	-14.121	52.773	15.508	-10.557	-120.83	-2.1616	-4.6695	47.841	-20.82	-28.77	-75.251	-10.145	-1.8359	20.129	10.757	4.9313	-37.01	7.6093	25.234
0.08	7.4566	-8.815	0.76727	0.84307	1.1732	-0.96317	32.109	-1.8941	-38.191	-95.799	-24.128	-14.869	54.183	16.187	-10.973	-122.37	-3.9958	-4.8988	49.113	-22.258	-27.446	-76.373	-10.807	-2.3563	20.188	11.751	4.8562	-37.563	7.5612	24.528
0.085	7.4646	-4.653	0.26449	0.84901	1.1741	-0.96367	33.755	-6.3962	-35.932	-98.274	-24.6	-15.011	56.519	16.602	-11.406	-125.13	-5.4477	-5.4254	47.371	-20.703	-29.611	-75.83	-11.116	-1.4833	20.597	11.547	4.3731	-37.664	7.2282	25.054
0.09	7.6622	-6.222	0.46581	0.85501	1.1761	-0.96267	32.665	-4.4568	-36.779	-97.621	-24.285	-15.299	58.255	16.576	-12.082	-126.76	-6.106	-5.5516	48.972	-22.419	-26.697	-77.027	-10.9	-1.9705	21.074	11.633	4.3828	-38.435	7.26	25.131
0.095	7.8436	-8.424	0.76367	0.86101	1.1771	-0.96267	31.943	-2.2423	-38.224	-97.138	-24.529	-15.754	59.782	17.135	-12.778	-128.27	-6.9249	-5.6021	48.703	-22.493	-27.621	-77.279	-11.117	-1.9375	20.513	11.835	4.7413	-37.981	7.1255	25.118
0.1	7.8469	-4.148	0.032627	0.86779	1.1783	-0.96242	33.507	-6.1164	-35.463	-99.172	-24.623	-16.194	62.026	17.574	-13.787	-130.4	-8.8512	-5.9576	45.868	-18.968	-31.624	-76.093	-10.739	-1.7547	21.09	11.495	5.0132	-38.472	7.282	24.813
0.105	8.0591	-4.04	0.47783	0.87428	1.1783	-0.96411	33.516	-7.1552	-36.154	-99.721	-25.034	-16.511	63.327	17.956	-14.113	-131.18	-9.0938	-5.9959	48.375	-22.554	-27.27	-77.81	-11.346	-1.4501	21.335	11.972	4.0325	-38.866	6.9202	25.126
0.11	8.0533	-4.674	0.2681	0.88052	1.1805	-0.96167	32.94	-5.6897	-35.932	-99.152	-24.397	-16.875	65.196	17.945	-14.806	-132.34	-9.4822	-6.0983	47.452	-21.709	-28.544	-77.335	-11.363	-1.9724	20.916	11.665	4.8033	-38.609	6.8872	25.868
0.115	8.2403	-3.803	0.015441	0.88552	1.1825	-0.96167	33.465	-6.5043	-35.506	-99.781	-24.925	-17.288	66.905	18.564	-15.661	-134.05	-10.388	-6.159	47.019	-21.209	-28.924	-77.527	-11.45	-1.4314	21.533	11.867	4.2141	-39.151	6.6998	25.656
0.12	8.4171	-5.258	0.46335	0.89152	1.1835	-0.96167	33.13	-5.3662	-36.84	-99.676	-25.11	-17.461	68.42	18.81	-16.649	-134.57	-11.744	-6.2849	48.154	-22.464	-28.216	-78.599	-12.155	-1.9894	21.332	12.063	4.7299	-39.076	6.6882	25.675
0.125	8.2446	-2.613	0.26777	0.89628	1.1853	-0.96311	34.238	-8.2552	-35.084	-100.71	-24.737	-17.588	69.702	18.74	-16.906	-134.35	-11.422	-6.2959	47.596	-22.422	-27.945	-78.313	-11.713	-2.1157	21.037	11.71	4.4139	-39.162	6.7261	26.214
0.13	8.4544	-5.728	0.4756	0.90333	1.1868	-0.96042	33.055	-4.9688	-37.105	-99.556	-25.048	-17.397	71.476	18.779	-18.073	-135.33	-11.936	-6.263	46.429	-21.064	-30.08	-77.899	-12.132	-2.3224	20.993	11.89	4.8898	-39.472	6.7474	26.091
0.135	8.4036	-7.672	0.7704	0.90823	1.1877	-0.96091	33.424	-3.7848	-38.842	-99.907	-25.33	-17.787	72.644	18.793	-17.957	-135.25	-11.644	-6.3625	47.768	-22.717	-28.258	-78.819	-12.509	-2.3619	21.034	11.574	4.7828	-39.261	6.8677	26.328
0.14	8.6016	-2.844	0.020131	0.91323	1.1897	-0.96091	34.2	-7.8944	-35.189	-100.54	-25.097	-17.204	74.258	19.037	-19.183	-134.8	-12.681	-6.1384	46.063	-21.613	-29.424	-77.788	-12.068	-2.9162	20.868	11.619	5.4093	-39.615	6.862	26.224
0.145	8.6034	-5.362	0.46211	0.91823	1.1917	-0.95991	34.136	-6.145	-37.402	-100.36	-25.378	-17.519	75.386	19.043	-19.614	-134.83	-12.519	-6.2069	46.788	-22.056	-28.87	-78.638	-12.661	-3.1696	21.064	11.729	5.3366	-39.46	6.8261	26.342
0.15	8.798	-7.86	0.77508	0.92323	1.1937	-0.95991	33.612	-3.5823	-38.94	-99.858	-25.386	-17.294	76.888	18.536	-20.687	-134.46	-12.607	-6.0545	45.215	-20.044	-31.65	-78.031	-12.618	-3.7802	20.441	11.924	5.7691	-39.048	6.9456	25.781
0.155	8.7869	-2.542	0.00087967	0.92894	1.194	-0.96015	35.658	-9.0582	-35.507	-101.43	-25.522	-17.315	77.946	18.897	-20.444	-134.17	-12.099	-6.0231	46.881	-22.521	-29.124	-78.831	-13.149	-3.5055	20.373	11.653	5.426	-39.139	6.752	26.6
0.16	8.9974	-4.422	0.45766	0.93323	1.1967	-0.95991	35.239	-7.6685	-37.187	-101.02	-25.833	-16.729	79.019	18.264	-21.312	-133.24	-11.596	-5.7658	46.219	-21.941	-29.691	-78.913	-13.074	-4.0102	20.617	11.547	5.8393	-39.495	6.8775	26.619
0.165	9.1963	-3.719	0.25386	0.93823	1.1987	-0.95891	35.471	-7.996	-36.451	-100.71	-25.741	-16.649	79.916	18.196	-21.426	-132.64	-10.975	-5.6369	45.969	-21.796	-30.577	-78.866	-13.743	-4.0252	20.47	11.915	5.5643	-39.52	6.9927	26.028
0.17	9.1838	-2.586	0.0055749	0.94394	1.199	-0.95915	36.474	-9.1465	-35.697	-101.12	-25.79	-16.289	80.937	17.588	-21.996	-132.17	-10.871	-5.6636	47.679	-24.45	-26.323	-79.378	-13.249	-4.5598	20.191	11.772	6.2186	-39.295	7.0076	26.108
0.175	9.3913	-4.173	0.45661	0.94894	1.201	-0.95915	36.055	-8.6222	-37.102	-100.69	-25.813	-15.663	81.699	17.431	-22.421	-131.11	-10.308	-5.421	45.571	-22.054	-30.71	-78.931	-14.012	-4.5412	20.001	12.184	6.5054	-38.893	7.1592	24.698
0.18	9.3812	-2.061	0.01436	0.95323	1.2037	-0.95891	37.146	-10.237	-35.453	-100.7	-25.68	-15.843	82.358	17.55	-21.998	-130.57	-9.9477	-5.6388	46.626	-23.547	-28.133	-79.284	-14.116	-4.9074	19.862	11.875	6.361	-38.867	7.0131	25.557
